<svg width="1920" height="1024" viewBox="0 0 1920 1024" fill="none" xmlns="http://www.w3.org/2000/svg">
<g clip-path="url(#clip0_1_2)">
<g filter="url(#filter0_d_1_2)">
<rect x="384.196" y="510" width="177" height="30" transform="rotate(39.7827 384.196 510)" fill="white"/>
<rect x="403.196" y="366" width="177" height="30" transform="rotate(39.7827 403.196 366)" fill="white"/>
<rect x="507.487" y="306.501" width="216.859" height="30" transform="rotate(39.7827 507.487 306.501)" fill="white"/>
<rect x="699.197" y="122.084" width="207.81" height="30" transform="rotate(39.7827 699.197 122.084)" fill="white"/>
<rect x="822.486" y="80.5011" width="177" height="30" transform="rotate(39.7827 822.486 80.5011)" fill="white"/>
<rect x="-27.5137" y="845.501" width="177" height="30" transform="rotate(39.7827 -27.5137 845.501)" fill="white"/>
<rect x="108.486" y="814.501" width="177" height="30" transform="rotate(39.7827 108.486 814.501)" fill="white"/>
<rect x="237.664" y="758.58" width="83.8983" height="30" transform="rotate(39.7827 237.664 758.58)" fill="white"/>
<rect x="849.486" y="-60.4989" width="216.859" height="30" transform="rotate(39.7827 849.486 -60.4989)" fill="white"/>
<path d="M9.46005 740.218C98.4718 650.977 287.822 654.689 296.822 654.689C305.822 654.689 309.046 676.532 307.322 685.688C305.599 694.843 114.478 678.883 37.8428 759.847C-38.7928 840.81 -40.2284 1052.14 -32.8903 1046.15C-25.5523 1040.16 -58.6518 1051.87 -66.3525 1051.14C-74.0533 1050.41 -79.5517 829.459 9.46005 740.218Z" fill="white"/>
<path d="M252.871 978.122C163.86 1067.36 -62.3764 1070.7 -62.0515 1061.4C-61.7266 1052.11 -61.1911 1046.87 -59.4676 1037.72C-57.744 1028.56 147.853 1039.46 224.489 958.493C301.124 877.53 302.56 666.198 295.222 672.188C287.884 678.177 320.983 666.466 328.684 667.199C336.385 667.932 341.883 888.881 252.871 978.122Z" fill="white"/>
<path d="M374.381 366.916C463.393 277.676 689.629 274.342 689.304 283.633C688.979 292.925 688.444 298.165 686.72 307.321C684.996 316.476 479.399 305.582 402.764 386.545C326.128 467.508 324.693 678.84 332.031 672.851C339.369 666.861 306.269 678.572 298.569 677.839C290.868 677.107 285.369 456.157 374.381 366.916Z" fill="white"/>
<path d="M622.017 603.688C533.22 690.967 302.322 689.188 290.822 687.688C279.322 686.188 289.428 656.528 293.125 653.358C296.823 650.188 517.155 663.591 593.598 584.399C670.04 505.207 671.012 298.121 663.689 303.976C656.366 309.831 689.433 298.419 697.133 299.151C704.834 299.884 710.815 516.408 622.017 603.688Z" fill="white"/>
<path d="M740.381 -19.8684C829.393 -109.109 1055.63 -112.443 1055.3 -103.151C1054.98 -93.8599 1054.44 -88.6197 1052.72 -79.464C1051 -70.3083 845.399 -81.2032 768.764 -0.239731C692.128 80.7237 690.693 292.055 698.031 286.066C705.369 280.076 672.269 291.787 664.569 291.054C656.868 290.322 651.369 69.3724 740.381 -19.8684Z" fill="white"/>
<path d="M970.245 223.904C881.233 313.145 659.821 315.688 659.822 310.688C659.822 305.688 659.822 284.688 659.822 280.688C659.822 276.688 865.226 285.239 941.862 204.276C1018.5 123.312 1019.93 -88.0195 1012.59 -82.03C1005.26 -76.0404 1038.36 -87.7513 1046.06 -87.0187C1053.76 -86.286 1059.26 134.663 970.245 223.904Z" fill="white"/>
</g>
<g filter="url(#filter1_d_1_2)">
<rect x="1274.63" y="563.621" width="203.329" height="34.4625" transform="rotate(21.2871 1274.63 563.621)" fill="white"/>
<rect x="1411.49" y="480.287" width="203.329" height="34.4625" transform="rotate(21.2871 1411.49 480.287)" fill="white"/>
<rect x="1389.52" y="316.841" width="170.8" height="34.4625" transform="rotate(21.2871 1389.52 316.841)" fill="white"/>
<rect x="1538.16" y="48.7962" width="231.215" height="34.4625" transform="rotate(21.2871 1538.16 48.7962)" fill="white"/>
<rect x="1650.33" y="-44.1592" width="203.329" height="34.4625" transform="rotate(21.2871 1650.33 -44.1592)" fill="white"/>
<rect x="1139.97" y="1015.67" width="203.329" height="34.4625" transform="rotate(21.2871 1139.97 1015.67)" fill="white"/>
<rect x="1260.32" y="907.671" width="96.3782" height="34.4625" transform="rotate(21.2871 1260.32 907.671)" fill="white"/>
<path d="M1005.02 970.829C1069.47 841.171 1277.1 776.212 1286.91 772.932C1296.71 769.652 1308.18 792.274 1309.64 802.876C1311.1 813.479 1097.08 865.739 1043.09 981.87C989.11 1098 1064.56 1328.75 1070.37 1319.55C1076.18 1310.35 1044.39 1335.17 1035.74 1337.18C1027.08 1339.19 940.57 1100.49 1005.02 970.829Z" fill="white"/>
<path d="M1356.89 1141.3C1292.44 1270.96 1047.19 1357.04 1044.16 1346.8C1041.13 1336.55 1039.8 1330.65 1038.34 1320.05C1036.89 1309.45 1264.84 1246.39 1318.82 1130.26C1372.8 1014.13 1297.35 783.379 1291.54 792.579C1285.73 801.778 1317.52 776.958 1326.18 774.95C1334.83 772.941 1421.34 1011.64 1356.89 1141.3Z" fill="white"/>
<path d="M1266.53 431.164C1330.98 301.506 1576.23 215.43 1579.26 225.67C1582.29 235.911 1583.62 241.815 1585.08 252.417C1586.54 263.02 1358.59 326.075 1304.6 442.205C1250.62 558.335 1326.07 789.086 1331.88 779.887C1337.69 770.688 1305.9 795.508 1297.25 797.516C1288.59 799.524 1202.08 560.822 1266.53 431.164Z" fill="white"/>
<path d="M1622.59 598.863C1557.66 726.306 1305.47 808.511 1292.4 811.068C1279.32 813.625 1279.52 777.63 1282.4 772.829C1285.27 768.028 1530.19 702.336 1584.6 588.206C1639.02 474.076 1564.62 248.119 1558.77 257.166C1552.93 266.214 1584.79 241.731 1593.45 239.723C1602.1 237.714 1687.53 471.42 1622.59 598.863Z" fill="white"/>
<path d="M1524.3 -123.582C1588.75 -253.24 1834 -339.317 1837.04 -329.076C1840.07 -318.836 1841.39 -312.932 1842.85 -302.329C1844.31 -291.727 1616.36 -228.672 1562.38 -112.542C1508.4 3.58839 1583.84 234.339 1589.66 225.14C1595.47 215.941 1563.68 240.761 1555.02 242.769C1546.36 244.777 1459.86 6.07547 1524.3 -123.582Z" fill="white"/>
<path d="M1863.56 58.22C1799.11 187.878 1558.83 271.335 1557 265.888C1555.18 260.44 1547.53 237.563 1546.07 233.205C1544.61 228.848 1771.5 163.31 1825.48 47.1796C1879.47 -68.9508 1804.02 -299.702 1798.21 -290.503C1792.39 -281.303 1824.19 -306.123 1832.84 -308.132C1841.5 -310.14 1928.01 -71.438 1863.56 58.22Z" fill="white"/>
</g>
<g filter="url(#filter2_d_1_2)">
<rect x="384.196" y="510" width="177" height="30" transform="rotate(39.7827 384.196 510)" fill="url(#paint0_linear_1_2)"/>
<rect x="403.196" y="366" width="177" height="30" transform="rotate(39.7827 403.196 366)" fill="url(#paint1_linear_1_2)"/>
<rect x="507.487" y="306.501" width="216.859" height="30" transform="rotate(39.7827 507.487 306.501)" fill="url(#paint2_linear_1_2)"/>
<rect x="699.197" y="122.084" width="207.81" height="30" transform="rotate(39.7827 699.197 122.084)" fill="url(#paint3_linear_1_2)"/>
<rect x="822.486" y="80.5011" width="177" height="30" transform="rotate(39.7827 822.486 80.5011)" fill="url(#paint4_linear_1_2)"/>
<rect x="-27.5137" y="845.501" width="177" height="30" transform="rotate(39.7827 -27.5137 845.501)" fill="url(#paint5_linear_1_2)"/>
<rect x="108.486" y="814.501" width="177" height="30" transform="rotate(39.7827 108.486 814.501)" fill="url(#paint6_linear_1_2)"/>
<rect x="237.664" y="758.58" width="83.8983" height="30" transform="rotate(39.7827 237.664 758.58)" fill="url(#paint7_linear_1_2)"/>
<rect x="849.486" y="-60.4989" width="216.859" height="30" transform="rotate(39.7827 849.486 -60.4989)" fill="url(#paint8_linear_1_2)"/>
<path d="M9.46005 740.218C98.4718 650.977 287.822 654.689 296.822 654.689C305.822 654.689 309.046 676.532 307.322 685.688C305.599 694.843 114.478 678.883 37.8428 759.847C-38.7928 840.81 -40.2284 1052.14 -32.8903 1046.15C-25.5523 1040.16 -58.6518 1051.87 -66.3525 1051.14C-74.0533 1050.41 -79.5517 829.459 9.46005 740.218Z" fill="url(#paint9_linear_1_2)"/>
<path d="M252.871 978.122C163.86 1067.36 -62.3764 1070.7 -62.0515 1061.4C-61.7266 1052.11 -61.1911 1046.87 -59.4676 1037.72C-57.744 1028.56 147.853 1039.46 224.489 958.493C301.124 877.53 302.56 666.198 295.222 672.188C287.884 678.177 320.983 666.466 328.684 667.199C336.385 667.932 341.883 888.881 252.871 978.122Z" fill="url(#paint10_linear_1_2)"/>
<path d="M374.381 366.916C463.393 277.676 689.629 274.342 689.304 283.633C688.979 292.925 688.444 298.165 686.72 307.321C684.997 316.476 479.399 305.582 402.764 386.545C326.128 467.508 324.693 678.84 332.031 672.851C339.369 666.861 306.269 678.572 298.569 677.839C290.868 677.107 285.369 456.157 374.381 366.916Z" fill="url(#paint11_linear_1_2)"/>
<path d="M622.017 603.688C533.22 690.967 302.322 689.188 290.822 687.688C279.322 686.188 289.428 656.528 293.125 653.358C296.823 650.188 517.155 663.591 593.598 584.399C670.04 505.207 671.012 298.121 663.689 303.976C656.366 309.831 689.433 298.419 697.133 299.151C704.834 299.884 710.815 516.408 622.017 603.688Z" fill="url(#paint12_linear_1_2)"/>
<path d="M740.381 -19.8684C829.393 -109.109 1055.63 -112.443 1055.3 -103.151C1054.98 -93.8599 1054.44 -88.6197 1052.72 -79.464C1051 -70.3083 845.399 -81.2032 768.764 -0.239735C692.128 80.7237 690.693 292.055 698.031 286.066C705.369 280.076 672.269 291.787 664.569 291.054C656.868 290.322 651.369 69.3724 740.381 -19.8684Z" fill="url(#paint13_linear_1_2)"/>
<path d="M970.245 223.904C881.233 313.145 659.821 315.688 659.822 310.688C659.822 305.688 659.822 284.688 659.822 280.688C659.822 276.688 865.226 285.239 941.862 204.276C1018.5 123.312 1019.93 -88.0195 1012.59 -82.03C1005.26 -76.0404 1038.36 -87.7513 1046.06 -87.0187C1053.76 -86.286 1059.26 134.663 970.245 223.904Z" fill="url(#paint14_linear_1_2)"/>
</g>
<g filter="url(#filter3_d_1_2)">
<rect x="1274.63" y="563.621" width="203.329" height="34.4625" transform="rotate(21.2871 1274.63 563.621)" fill="url(#paint15_linear_1_2)"/>
<rect x="1411.49" y="480.287" width="203.329" height="34.4625" transform="rotate(21.2871 1411.49 480.287)" fill="url(#paint16_linear_1_2)"/>
<rect x="1389.52" y="316.841" width="170.8" height="34.4625" transform="rotate(21.2871 1389.52 316.841)" fill="url(#paint17_linear_1_2)"/>
<rect x="1538.16" y="48.7962" width="231.215" height="34.4625" transform="rotate(21.2871 1538.16 48.7962)" fill="url(#paint18_linear_1_2)"/>
<rect x="1650.33" y="-44.1592" width="203.329" height="34.4625" transform="rotate(21.2871 1650.33 -44.1592)" fill="url(#paint19_linear_1_2)"/>
<rect x="1139.97" y="1015.67" width="203.329" height="34.4625" transform="rotate(21.2871 1139.97 1015.67)" fill="url(#paint20_linear_1_2)"/>
<rect x="1260.32" y="907.671" width="96.3782" height="34.4625" transform="rotate(21.2871 1260.32 907.671)" fill="url(#paint21_linear_1_2)"/>
<path d="M1005.02 970.829C1069.47 841.171 1277.1 776.212 1286.91 772.932C1296.71 769.652 1308.18 792.274 1309.64 802.876C1311.1 813.479 1097.08 865.739 1043.09 981.87C989.11 1098 1064.56 1328.75 1070.37 1319.55C1076.18 1310.35 1044.39 1335.17 1035.74 1337.18C1027.08 1339.19 940.57 1100.49 1005.02 970.829Z" fill="url(#paint22_linear_1_2)"/>
<path d="M1356.89 1141.3C1292.44 1270.96 1047.19 1357.04 1044.16 1346.8C1041.13 1336.55 1039.8 1330.65 1038.34 1320.05C1036.89 1309.45 1264.84 1246.39 1318.82 1130.26C1372.8 1014.13 1297.35 783.379 1291.54 792.579C1285.73 801.778 1317.52 776.958 1326.18 774.95C1334.83 772.941 1421.34 1011.64 1356.89 1141.3Z" fill="url(#paint23_linear_1_2)"/>
<path d="M1266.53 431.164C1330.98 301.506 1576.23 215.43 1579.26 225.67C1582.29 235.911 1583.62 241.815 1585.08 252.417C1586.54 263.02 1358.59 326.075 1304.6 442.205C1250.62 558.335 1326.07 789.086 1331.88 779.887C1337.69 770.688 1305.9 795.508 1297.25 797.516C1288.59 799.524 1202.08 560.822 1266.53 431.164Z" fill="url(#paint24_linear_1_2)"/>
<path d="M1622.59 598.863C1557.66 726.306 1305.47 808.511 1292.4 811.068C1279.32 813.625 1279.52 777.63 1282.4 772.829C1285.27 768.028 1530.19 702.336 1584.6 588.206C1639.02 474.076 1564.62 248.119 1558.77 257.166C1552.93 266.214 1584.79 241.731 1593.45 239.723C1602.1 237.714 1687.53 471.42 1622.59 598.863Z" fill="url(#paint25_linear_1_2)"/>
<path d="M1524.3 -123.582C1588.75 -253.24 1834 -339.317 1837.04 -329.076C1840.07 -318.836 1841.39 -312.932 1842.85 -302.329C1844.31 -291.727 1616.36 -228.672 1562.38 -112.542C1508.4 3.58839 1583.84 234.339 1589.66 225.14C1595.47 215.941 1563.68 240.761 1555.02 242.769C1546.36 244.777 1459.86 6.07547 1524.3 -123.582Z" fill="url(#paint26_linear_1_2)"/>
<path d="M1863.56 58.22C1799.11 187.878 1558.83 271.335 1557 265.888C1555.18 260.44 1547.53 237.563 1546.07 233.205C1544.61 228.848 1771.5 163.31 1825.48 47.1796C1879.47 -68.9508 1804.02 -299.702 1798.21 -290.503C1792.39 -281.303 1824.19 -306.123 1832.84 -308.132C1841.5 -310.14 1928.01 -71.438 1863.56 58.22Z" fill="url(#paint27_linear_1_2)"/>
</g>
</g>
<defs>
<filter id="filter0_d_1_2" x="-137.893" y="-174.271" width="1260.8" height="1306.8" filterUnits="userSpaceOnUse" color-interpolation-filters="sRGB">
<feFlood flood-opacity="0" result="BackgroundImageFix"/>
<feColorMatrix in="SourceAlpha" type="matrix" values="0 0 0 0 0 0 0 0 0 0 0 0 0 0 0 0 0 0 127 0" result="hardAlpha"/>
<feOffset/>
<feGaussianBlur stdDeviation="33.8"/>
<feComposite in2="hardAlpha" operator="out"/>
<feColorMatrix type="matrix" values="0 0 0 0 0.432068 0 0 0 0 0.930728 0 0 0 0 0.966346 0 0 0 1 0"/>
<feBlend mode="normal" in2="BackgroundImageFix" result="effect1_dropShadow_1_2"/>
<feBlend mode="normal" in="SourceGraphic" in2="effect1_dropShadow_1_2" result="shape"/>
</filter>
<filter id="filter1_d_1_2" x="913.725" y="-397.501" width="1041.13" height="1812.72" filterUnits="userSpaceOnUse" color-interpolation-filters="sRGB">
<feFlood flood-opacity="0" result="BackgroundImageFix"/>
<feColorMatrix in="SourceAlpha" type="matrix" values="0 0 0 0 0 0 0 0 0 0 0 0 0 0 0 0 0 0 127 0" result="hardAlpha"/>
<feOffset/>
<feGaussianBlur stdDeviation="33.8"/>
<feComposite in2="hardAlpha" operator="out"/>
<feColorMatrix type="matrix" values="0 0 0 0 0.432068 0 0 0 0 0.930728 0 0 0 0 0.966346 0 0 0 1 0"/>
<feBlend mode="normal" in2="BackgroundImageFix" result="effect1_dropShadow_1_2"/>
<feBlend mode="normal" in="SourceGraphic" in2="effect1_dropShadow_1_2" result="shape"/>
</filter>
<filter id="filter2_d_1_2" x="-192.693" y="-229.071" width="1370.4" height="1416.4" filterUnits="userSpaceOnUse" color-interpolation-filters="sRGB">
<feFlood flood-opacity="0" result="BackgroundImageFix"/>
<feColorMatrix in="SourceAlpha" type="matrix" values="0 0 0 0 0 0 0 0 0 0 0 0 0 0 0 0 0 0 127 0" result="hardAlpha"/>
<feOffset/>
<feGaussianBlur stdDeviation="61.2"/>
<feComposite in2="hardAlpha" operator="out"/>
<feColorMatrix type="matrix" values="0 0 0 0 0.432068 0 0 0 0 0.930728 0 0 0 0 0.966346 0 0 0 1 0"/>
<feBlend mode="normal" in2="BackgroundImageFix" result="effect1_dropShadow_1_2"/>
<feBlend mode="normal" in="SourceGraphic" in2="effect1_dropShadow_1_2" result="shape"/>
</filter>
<filter id="filter3_d_1_2" x="858.925" y="-452.301" width="1150.73" height="1922.32" filterUnits="userSpaceOnUse" color-interpolation-filters="sRGB">
<feFlood flood-opacity="0" result="BackgroundImageFix"/>
<feColorMatrix in="SourceAlpha" type="matrix" values="0 0 0 0 0 0 0 0 0 0 0 0 0 0 0 0 0 0 127 0" result="hardAlpha"/>
<feOffset/>
<feGaussianBlur stdDeviation="61.2"/>
<feComposite in2="hardAlpha" operator="out"/>
<feColorMatrix type="matrix" values="0 0 0 0 0.432068 0 0 0 0 0.930728 0 0 0 0 0.966346 0 0 0 1 0"/>
<feBlend mode="normal" in2="BackgroundImageFix" result="effect1_dropShadow_1_2"/>
<feBlend mode="normal" in="SourceGraphic" in2="effect1_dropShadow_1_2" result="shape"/>
</filter>
<linearGradient id="paint0_linear_1_2" x1="472.696" y1="510" x2="472.696" y2="540" gradientUnits="userSpaceOnUse">
<stop stop-color="#ABEBF6"/>
<stop offset="1" stop-color="#144E58"/>
</linearGradient>
<linearGradient id="paint1_linear_1_2" x1="491.696" y1="366" x2="491.696" y2="396" gradientUnits="userSpaceOnUse">
<stop stop-color="#ABEBF6"/>
<stop offset="1" stop-color="#144E58"/>
</linearGradient>
<linearGradient id="paint2_linear_1_2" x1="615.916" y1="306.501" x2="615.916" y2="336.501" gradientUnits="userSpaceOnUse">
<stop stop-color="#ABEBF6"/>
<stop offset="1" stop-color="#144E58"/>
</linearGradient>
<linearGradient id="paint3_linear_1_2" x1="803.102" y1="122.084" x2="803.102" y2="152.084" gradientUnits="userSpaceOnUse">
<stop stop-color="#ABEBF6"/>
<stop offset="1" stop-color="#144E58"/>
</linearGradient>
<linearGradient id="paint4_linear_1_2" x1="910.986" y1="80.5011" x2="910.986" y2="110.501" gradientUnits="userSpaceOnUse">
<stop stop-color="#ABEBF6"/>
<stop offset="1" stop-color="#144E58"/>
</linearGradient>
<linearGradient id="paint5_linear_1_2" x1="60.9863" y1="845.501" x2="60.9863" y2="875.501" gradientUnits="userSpaceOnUse">
<stop stop-color="#ABEBF6"/>
<stop offset="1" stop-color="#144E58"/>
</linearGradient>
<linearGradient id="paint6_linear_1_2" x1="196.986" y1="814.501" x2="196.986" y2="844.501" gradientUnits="userSpaceOnUse">
<stop stop-color="#ABEBF6"/>
<stop offset="1" stop-color="#144E58"/>
</linearGradient>
<linearGradient id="paint7_linear_1_2" x1="279.613" y1="758.58" x2="279.613" y2="788.58" gradientUnits="userSpaceOnUse">
<stop stop-color="#ABEBF6"/>
<stop offset="1" stop-color="#144E58"/>
</linearGradient>
<linearGradient id="paint8_linear_1_2" x1="957.916" y1="-60.4989" x2="957.916" y2="-30.4989" gradientUnits="userSpaceOnUse">
<stop stop-color="#ABEBF6"/>
<stop offset="1" stop-color="#144E58"/>
</linearGradient>
<linearGradient id="paint9_linear_1_2" x1="146.888" y1="638.229" x2="106.043" y2="1067.54" gradientUnits="userSpaceOnUse">
<stop stop-color="#ABEBF6"/>
<stop offset="1" stop-color="#144E58"/>
</linearGradient>
<linearGradient id="paint10_linear_1_2" x1="115.444" y1="1080.11" x2="156.289" y2="650.797" gradientUnits="userSpaceOnUse">
<stop stop-color="#ABEBF6"/>
<stop offset="1" stop-color="#144E58"/>
</linearGradient>
<linearGradient id="paint11_linear_1_2" x1="511.809" y1="264.928" x2="470.964" y2="694.241" gradientUnits="userSpaceOnUse">
<stop stop-color="#ABEBF6"/>
<stop offset="1" stop-color="#144E58"/>
</linearGradient>
<linearGradient id="paint12_linear_1_2" x1="482.039" y1="706.196" x2="522.055" y2="285.591" gradientUnits="userSpaceOnUse">
<stop stop-color="#ABEBF6"/>
<stop offset="1" stop-color="#144E58"/>
</linearGradient>
<linearGradient id="paint13_linear_1_2" x1="877.809" y1="-121.857" x2="836.964" y2="307.456" gradientUnits="userSpaceOnUse">
<stop stop-color="#ABEBF6"/>
<stop offset="1" stop-color="#144E58"/>
</linearGradient>
<linearGradient id="paint14_linear_1_2" x1="845.111" y1="325.893" x2="885.956" y2="-103.421" gradientUnits="userSpaceOnUse">
<stop stop-color="#ABEBF6"/>
<stop offset="1" stop-color="#144E58"/>
</linearGradient>
<linearGradient id="paint15_linear_1_2" x1="1376.29" y1="563.621" x2="1376.29" y2="598.083" gradientUnits="userSpaceOnUse">
<stop stop-color="#ABEBF6"/>
<stop offset="1" stop-color="#144E58"/>
</linearGradient>
<linearGradient id="paint16_linear_1_2" x1="1513.16" y1="480.287" x2="1513.16" y2="514.75" gradientUnits="userSpaceOnUse">
<stop stop-color="#ABEBF6"/>
<stop offset="1" stop-color="#144E58"/>
</linearGradient>
<linearGradient id="paint17_linear_1_2" x1="1474.92" y1="316.841" x2="1474.92" y2="351.303" gradientUnits="userSpaceOnUse">
<stop stop-color="#ABEBF6"/>
<stop offset="1" stop-color="#144E58"/>
</linearGradient>
<linearGradient id="paint18_linear_1_2" x1="1653.77" y1="48.7962" x2="1653.77" y2="83.2587" gradientUnits="userSpaceOnUse">
<stop stop-color="#ABEBF6"/>
<stop offset="1" stop-color="#144E58"/>
</linearGradient>
<linearGradient id="paint19_linear_1_2" x1="1751.99" y1="-44.1592" x2="1751.99" y2="-9.69669" gradientUnits="userSpaceOnUse">
<stop stop-color="#ABEBF6"/>
<stop offset="1" stop-color="#144E58"/>
</linearGradient>
<linearGradient id="paint20_linear_1_2" x1="1241.64" y1="1015.67" x2="1241.64" y2="1050.13" gradientUnits="userSpaceOnUse">
<stop stop-color="#ABEBF6"/>
<stop offset="1" stop-color="#144E58"/>
</linearGradient>
<linearGradient id="paint21_linear_1_2" x1="1308.51" y1="907.671" x2="1308.51" y2="942.133" gradientUnits="userSpaceOnUse">
<stop stop-color="#ABEBF6"/>
<stop offset="1" stop-color="#144E58"/>
</linearGradient>
<linearGradient id="paint22_linear_1_2" x1="1117.57" y1="809.639" x2="1229.52" y2="1292.22" gradientUnits="userSpaceOnUse">
<stop stop-color="#ABEBF6"/>
<stop offset="1" stop-color="#144E58"/>
</linearGradient>
<linearGradient id="paint23_linear_1_2" x1="1244.34" y1="1302.49" x2="1132.39" y2="819.906" gradientUnits="userSpaceOnUse">
<stop stop-color="#ABEBF6"/>
<stop offset="1" stop-color="#144E58"/>
</linearGradient>
<linearGradient id="paint24_linear_1_2" x1="1379.08" y1="269.975" x2="1491.03" y2="752.56" gradientUnits="userSpaceOnUse">
<stop stop-color="#ABEBF6"/>
<stop offset="1" stop-color="#144E58"/>
</linearGradient>
<linearGradient id="paint25_linear_1_2" x1="1507.46" y1="761.548" x2="1397.77" y2="288.752" gradientUnits="userSpaceOnUse">
<stop stop-color="#ABEBF6"/>
<stop offset="1" stop-color="#144E58"/>
</linearGradient>
<linearGradient id="paint26_linear_1_2" x1="1636.85" y1="-284.772" x2="1748.81" y2="197.813" gradientUnits="userSpaceOnUse">
<stop stop-color="#ABEBF6"/>
<stop offset="1" stop-color="#144E58"/>
</linearGradient>
<linearGradient id="paint27_linear_1_2" x1="1764.4" y1="214.929" x2="1652.45" y2="-267.656" gradientUnits="userSpaceOnUse">
<stop stop-color="#ABEBF6"/>
<stop offset="1" stop-color="#144E58"/>
</linearGradient>
<clipPath id="clip0_1_2">
<rect width="1920" height="1024" fill="white"/>
</clipPath>
</defs>
</svg>
